<?xml version="1.0" encoding="utf-8"?>
<!-- Generator: Adobe Illustrator 16.0.0, SVG Export Plug-In . SVG Version: 6.00 Build 0)  -->
<!DOCTYPE svg PUBLIC "-//W3C//DTD SVG 1.1//EN" "http://www.w3.org/Graphics/SVG/1.1/DTD/svg11.dtd">
<svg version="1.1" id="Layer_1" xmlns="http://www.w3.org/2000/svg" xmlns:xlink="http://www.w3.org/1999/xlink" x="0px" y="0px"
	 width="259.32px" height="57.189px" viewBox="0 0 259.32 57.189" enable-background="new 0 0 259.32 57.189" xml:space="preserve">
<g>
	<g>
		<path fill="#FFFFFF" d="M63.013,54.087c-0.503,0.505-1.112,0.76-1.825,0.76c-0.711,0-1.317-0.255-1.82-0.76
			c-0.499-0.5-0.745-1.109-0.745-1.825c0-0.706,0.251-1.312,0.755-1.813c0.499-0.502,1.104-0.754,1.811-0.754
			c0.713,0,1.322,0.252,1.825,0.754c0.502,0.497,0.754,1.104,0.754,1.813C63.767,52.977,63.515,53.585,63.013,54.087 M59.625,50.7
			c-0.431,0.43-0.647,0.953-0.647,1.564c0,0.621,0.215,1.143,0.645,1.579c0.429,0.435,0.952,0.653,1.565,0.653
			c0.617,0,1.138-0.219,1.567-0.653c0.433-0.437,0.647-0.958,0.647-1.579c0-0.611-0.215-1.135-0.647-1.564
			c-0.433-0.436-0.955-0.656-1.567-0.656C60.579,50.044,60.058,50.265,59.625,50.7 M61.138,50.843c0.352,0,0.609,0.032,0.771,0.1
			c0.294,0.123,0.439,0.362,0.439,0.715c0,0.256-0.092,0.441-0.276,0.562c-0.096,0.064-0.233,0.107-0.405,0.135
			c0.219,0.035,0.381,0.129,0.482,0.279c0.105,0.147,0.154,0.296,0.154,0.437v0.206c0,0.068,0,0.137,0.008,0.211
			c0.004,0.073,0.011,0.121,0.024,0.146l0.017,0.036h-0.467c-0.002-0.01-0.006-0.02-0.008-0.028
			c-0.001-0.008-0.004-0.021-0.006-0.033l-0.01-0.092v-0.221c0-0.328-0.089-0.543-0.268-0.648c-0.105-0.061-0.289-0.095-0.555-0.095
			h-0.393v1.117h-0.5v-2.827H61.138z M61.678,51.288c-0.126-0.069-0.327-0.105-0.604-0.105h-0.426v1.023h0.451
			c0.211,0,0.37-0.02,0.475-0.066c0.193-0.072,0.292-0.221,0.292-0.439C61.865,51.495,61.8,51.355,61.678,51.288"/>
		<path fill="#FFFFFF" d="M33.643,28.901c-0.726,0.054-8.022,2.861-14.228,6.875c1.91-0.258,3.898-0.618,5.906-1.045
			c4.688-2.825,8.899-4.249,8.899-4.249S33.905,29.498,33.643,28.901"/>
		<path fill="#FFFFFF" d="M10.876,48.325c0.051,0.076,0.285,0.731,0.576,1.561c-0.194-0.643-0.373-1.232-0.506-1.632
			c0.521,0.565,1.211,1.001,2.016,1.351c0.391-2.217,1.292-4.242,2.515-6.072c-1.368-0.143-2.632-0.383-3.755-0.745
			C10.598,44.602,10.175,46.476,10.876,48.325"/>
		<path fill="#FFFFFF" d="M6.71,28.362c-0.863,1.369-1.322,2.768-1.207,4.17c0.039,0.482,0.129,0.967,0.311,1.447
			c0.041,0.059,0.199,0.496,0.41,1.092c0.053,0.147,0.107,0.307,0.167,0.473c-0.046-0.149-0.091-0.3-0.136-0.441
			c-0.141-0.469-0.268-0.887-0.37-1.191c0.524,0.562,1.209,1.005,2.015,1.348c0.4-2.282,1.35-4.357,2.625-6.23
			c-1.193-0.1-2.305-0.279-3.33-0.535C7.028,28.452,6.868,28.408,6.71,28.362"/>
		<path fill="#FFFFFF" d="M28.901,16.227c0.167-0.06,0.258-0.09,0.258-0.09s-0.316-0.984-0.58-1.581
			c-0.713,0.055-7.805,2.78-13.945,6.698c0.6-0.083,1.205-0.171,1.816-0.271c1.348-0.218,2.721-0.481,4.098-0.77
			C24.44,17.905,27.944,16.571,28.901,16.227"/>
		<path fill="#FFFFFF" d="M23.417,1.67c0.166-0.061,0.258-0.091,0.258-0.091S23.358,0.596,23.095,0
			C21.792,0.1-0.7,9.071,0.017,17.975c0.038,0.483,0.129,0.967,0.312,1.449c0.039,0.06,0.195,0.486,0.4,1.071
			c0.055,0.147,0.111,0.308,0.169,0.475c-0.046-0.151-0.093-0.305-0.135-0.448c-0.139-0.457-0.264-0.867-0.364-1.167
			c0.52,0.564,1.211,1,2.016,1.349C4.499,8.866,21.145,2.488,23.417,1.67"/>
		<path fill="#FFFFFF" d="M53.7,42.49c-1.496,0.519-30.849,11.402-40.738,7.114c-0.805-0.35-1.495-0.785-2.016-1.35
			c0.133,0.398,0.312,0.988,0.505,1.633c0.424,1.396,0.937,3.082,1.321,3.854c7.455,9.422,43.881-3.448,43.881-3.448
			S54.263,43.753,53.7,42.49"/>
		<path fill="#FFFFFF" d="M16.038,42.737c7.737,0.631,18.529-1.779,26.19-3.898c0.094-0.025,0.188-0.051,0.28-0.077l-2.872-7.876
			c-4.163,1.293-9.286,2.776-14.315,3.846c-2.008,0.428-3.996,0.787-5.906,1.045c-4.553,0.615-8.633,0.635-11.342-0.443
			c-0.06-0.024-0.115-0.049-0.174-0.074c-0.807-0.344-1.49-0.783-2.015-1.35c0.103,0.309,0.229,0.724,0.371,1.191
			c0.044,0.143,0.089,0.294,0.136,0.442c0.42,1.399,0.936,3.081,1.32,3.849c0.006,0.006,0.012,0.012,0.015,0.017
			c1.013,1.27,2.557,2.128,4.462,2.672C13.351,42.411,14.644,42.626,16.038,42.737"/>
		<path fill="#FFFFFF" d="M7.744,27.785c1.036,0.221,2.165,0.358,3.354,0.433c0.215,0.013,0.432,0.023,0.649,0.033
			c12.519,0.517,31.681-5.933,34.082-6.761c0.165-0.059,0.275-0.097,0.275-0.097s-2.39-6.539-2.952-7.805
			c-0.829,0.287-10.19,3.749-20.064,6.06c-0.845,0.197-1.693,0.386-2.541,0.565c-1.376,0.291-2.752,0.55-4.098,0.77
			c-0.613,0.1-1.217,0.19-1.816,0.271c-4.839,0.655-9.199,0.681-12.047-0.479c-0.059-0.021-0.113-0.047-0.172-0.071
			c-0.805-0.35-1.494-0.785-2.016-1.349c0.101,0.302,0.224,0.71,0.364,1.167c0.042,0.143,0.089,0.295,0.136,0.448
			c0.424,1.401,0.941,3.098,1.326,3.869c0.008,0.007,0.014,0.012,0.019,0.016c1.095,1.376,2.819,2.264,4.95,2.795
			C7.376,27.696,7.555,27.745,7.744,27.785"/>
	</g>
	<g>
		<path fill="#FFFFFF" stroke="#FFFFFF" stroke-width="0.25" stroke-miterlimit="10" d="M78.352,43.979h-4.454v4.131h4.964v1.24
			h-6.442V37.894h6.187v1.242h-4.708v3.62h4.454V43.979z"/>
		<path fill="#FFFFFF" stroke="#FFFFFF" stroke-width="0.25" stroke-miterlimit="10" d="M84.693,49.351V37.894h1.615l3.671,5.797
			c0.85,1.344,1.513,2.55,2.057,3.723l0.034-0.017c-0.136-1.53-0.17-2.924-0.17-4.708v-4.795h1.394v11.457h-1.496l-3.637-5.812
			c-0.799-1.275-1.564-2.584-2.142-3.825l-0.051,0.017c0.085,1.445,0.119,2.822,0.119,4.727v4.895H84.693z"/>
		<path fill="#FFFFFF" stroke="#FFFFFF" stroke-width="0.25" stroke-miterlimit="10" d="M105.721,43.979h-4.454v4.131h4.964v1.24
			h-6.442V37.894h6.188v1.242h-4.709v3.62h4.454V43.979z"/>
		<path fill="#FFFFFF" stroke="#FFFFFF" stroke-width="0.25" stroke-miterlimit="10" d="M112.063,38.048
			c0.748-0.154,1.819-0.238,2.838-0.238c1.581,0,2.601,0.289,3.315,0.935c0.578,0.51,0.901,1.292,0.901,2.176
			c0,1.513-0.952,2.516-2.159,2.924v0.051c0.884,0.306,1.411,1.122,1.683,2.312c0.374,1.598,0.646,2.703,0.884,3.145h-1.53
			c-0.187-0.322-0.442-1.309-0.765-2.736c-0.34-1.58-0.952-2.176-2.295-2.227h-1.394v4.963h-1.479V38.048z M113.542,43.266h1.513
			c1.581,0,2.583-0.866,2.583-2.176c0-1.479-1.071-2.124-2.635-2.142c-0.714,0-1.224,0.068-1.462,0.136V43.266z"/>
		<path fill="#FFFFFF" stroke="#FFFFFF" stroke-width="0.25" stroke-miterlimit="10" d="M133.89,48.841
			c-0.664,0.238-1.973,0.629-3.52,0.629c-1.734,0-3.162-0.441-4.283-1.513c-0.986-0.952-1.598-2.481-1.598-4.267
			c0.017-3.416,2.363-5.915,6.205-5.915c1.325,0,2.362,0.288,2.855,0.526l-0.356,1.207c-0.612-0.271-1.377-0.492-2.533-0.492
			c-2.788,0-4.606,1.733-4.606,4.605c0,2.907,1.751,4.624,4.419,4.624c0.97,0,1.633-0.136,1.973-0.306v-3.417h-2.329v-1.19h3.774
			V48.841z"/>
		<path fill="#FFFFFF" stroke="#FFFFFF" stroke-width="0.25" stroke-miterlimit="10" d="M142.611,49.351v-4.861l-3.62-6.596h1.683
			l1.615,3.162c0.441,0.867,0.781,1.564,1.139,2.363h0.033c0.324-0.748,0.715-1.496,1.156-2.363l1.648-3.162h1.684l-3.842,6.579
			v4.878H142.611z"/>
		<path fill="#FFFFFF" stroke="#FFFFFF" stroke-width="0.25" stroke-miterlimit="10" d="M162.162,39.151h-3.485v-1.258h8.482v1.258
			h-3.502v10.199h-1.495V39.151z"/>
		<path fill="#FFFFFF" stroke="#FFFFFF" stroke-width="0.25" stroke-miterlimit="10" d="M172.344,38.048
			c0.747-0.154,1.819-0.238,2.839-0.238c1.58,0,2.601,0.289,3.314,0.935c0.578,0.51,0.9,1.292,0.9,2.176
			c0,1.513-0.951,2.516-2.158,2.924v0.051c0.884,0.306,1.41,1.122,1.683,2.312c0.374,1.598,0.646,2.703,0.884,3.145h-1.529
			c-0.188-0.322-0.442-1.309-0.766-2.736c-0.34-1.58-0.951-2.176-2.295-2.227h-1.394v4.963h-1.479V38.048z M173.823,43.266h1.513
			c1.581,0,2.584-0.866,2.584-2.176c0-1.479-1.07-2.124-2.635-2.142c-0.714,0-1.224,0.068-1.462,0.136V43.266z"/>
		<path fill="#FFFFFF" stroke="#FFFFFF" stroke-width="0.25" stroke-miterlimit="10" d="M187.337,45.747l-1.189,3.604h-1.53
			l3.893-11.457h1.785l3.909,11.457h-1.58l-1.225-3.604H187.337z M191.094,44.591l-1.122-3.297
			c-0.255-0.748-0.425-1.428-0.595-2.091h-0.034c-0.17,0.68-0.357,1.377-0.578,2.073l-1.121,3.314H191.094z"/>
		<path fill="#FFFFFF" stroke="#FFFFFF" stroke-width="0.25" stroke-miterlimit="10" d="M199.798,49.351V37.894h1.615l3.672,5.797
			c0.85,1.344,1.513,2.55,2.057,3.723l0.033-0.017c-0.135-1.53-0.17-2.924-0.17-4.708v-4.795h1.395v11.457h-1.496l-3.637-5.812
			c-0.8-1.275-1.564-2.584-2.143-3.825l-0.051,0.017c0.085,1.445,0.119,2.822,0.119,4.727v4.895H199.798z"/>
		<path fill="#FFFFFF" stroke="#FFFFFF" stroke-width="0.25" stroke-miterlimit="10" d="M214.691,47.55
			c0.663,0.407,1.632,0.748,2.652,0.748c1.512,0,2.396-0.8,2.396-1.955c0-1.071-0.612-1.684-2.159-2.278
			c-1.87-0.663-3.026-1.632-3.026-3.247c0-1.784,1.479-3.11,3.707-3.11c1.172,0,2.021,0.272,2.532,0.562l-0.408,1.207
			c-0.374-0.205-1.139-0.545-2.176-0.545c-1.563,0-2.159,0.936-2.159,1.717c0,1.071,0.697,1.598,2.278,2.211
			c1.938,0.747,2.924,1.682,2.924,3.365c0,1.768-1.31,3.297-4.012,3.297c-1.104,0-2.312-0.322-2.924-0.73L214.691,47.55z"/>
		<path fill="#FFFFFF" stroke="#FFFFFF" stroke-width="0.25" stroke-miterlimit="10" d="M227.185,37.894h6.171v1.242h-4.692v3.807
			H233v1.225h-4.336v5.184h-1.479V37.894z"/>
		<path fill="#FFFFFF" stroke="#FFFFFF" stroke-width="0.25" stroke-miterlimit="10" d="M245.307,43.979h-4.454v4.131h4.965v1.24
			h-6.443V37.894h6.188v1.242h-4.709v3.62h4.454V43.979z"/>
		<path fill="#FFFFFF" stroke="#FFFFFF" stroke-width="0.25" stroke-miterlimit="10" d="M251.648,38.048
			c0.748-0.154,1.819-0.238,2.839-0.238c1.581,0,2.601,0.289,3.315,0.935c0.578,0.51,0.9,1.292,0.9,2.176
			c0,1.513-0.952,2.516-2.158,2.924v0.051c0.883,0.306,1.41,1.122,1.682,2.312c0.375,1.598,0.646,2.703,0.885,3.145h-1.53
			c-0.187-0.322-0.442-1.309-0.765-2.736c-0.34-1.58-0.952-2.176-2.295-2.227h-1.395v4.963h-1.479V38.048z M253.126,43.266h1.514
			c1.58,0,2.584-0.866,2.584-2.176c0-1.479-1.071-2.124-2.635-2.142c-0.715,0-1.225,0.068-1.463,0.136V43.266z"/>
	</g>
</g>
</svg>
